<?xml version="1.0" encoding="utf-8"?>
<!-- Generator: Adobe Illustrator 21.1.0, SVG Export Plug-In . SVG Version: 6.00 Build 0)  -->
<svg version="1.1" id="Layer_1" xmlns="http://www.w3.org/2000/svg" xmlns:xlink="http://www.w3.org/1999/xlink" x="0px" y="0px" width="12" height="13"
	 viewBox="0 0 12 13" style="enable-background:new 0 0 12 13;" xml:space="preserve">
<style type="text/css">
	.st0{fill:#212121;}
</style>
<path class="st0" d="M11.9,11.6c-0.1-0.1-0.2-0.2-0.4-0.2c-0.1,0-0.1,0-0.2,0c-0.9,0.5-1.8,0.7-2.8,0.8c-2.4-0.1-4.4-1.8-5.1-4H8
	l0,0c0.2,0,0.3-0.2,0.3-0.3c0-0.2-0.1-0.4-0.3-0.5H7.7c0,0,0,0,0,0H3.3c0-0.2-0.1-0.4-0.1-0.6c0-0.3,0-0.7,0.1-1H8l0,0
	c0.2,0,0.4-0.2,0.4-0.4c0-0.2-0.2-0.4-0.4-0.4H7.7c0,0,0,0,0,0H3.4C4.1,2.6,6.1,1,8.5,0.8c1,0,2,0.3,2.8,0.8c0.1,0,0.1,0,0.2,0
	c0.2,0,0.3-0.1,0.4-0.2C12,1.3,12,1.2,12,1.1c0,0,0,0,0-0.1c0,0,0-0.1,0-0.1c0,0,0,0,0,0c0,0-0.1-0.1-0.1-0.1C10.9,0.3,9.8,0,8.7,0
	C8.6,0,8.6,0,8.5,0c0,0-0.1,0-0.1,0C8.2,0,8,0,7.8,0c-2.9,0.1-5.3,2.2-6,4.9H0.4c0,0,0,0-0.1,0C0.1,4.9,0,5.1,0,5.3s0.2,0.4,0.4,0.4
	h1c0,0,0,0,0,0h0.2c0,0.4-0.1,0.7,0,1.1c0,0.2,0,0.3,0,0.5H0.4c0,0,0,0-0.1,0C0.1,7.3,0,7.5,0,7.7s0.2,0.4,0.4,0.4h1c0,0,0,0,0,0
	h0.4c0.8,2.9,3.5,5,6.6,4.9c0,0,0.1,0,0.1,0c0.1,0,0.1,0,0.2,0l0,0c1.1,0,2.2-0.3,3.1-0.9C12,12,12.1,11.8,11.9,11.6
	C11.9,11.6,11.9,11.6,11.9,11.6z"/>
</svg>
