<svg xmlns="http://www.w3.org/2000/svg" width="9.44" height="14.875" viewBox="0 0 9.44 14.875">
  <defs>
    <style>
      .cls-1 {
        fill: #212121;
        fill-rule: evenodd;
      }
    </style>
  </defs>
  <path id="GBP" class="cls-1" d="M1191.5,974.466h3.67V973.21h-3.95c0.04,0.151.07,0.3,0.11,0.457C1191.4,973.943,1191.46,974.208,1191.5,974.466Zm-1.86-1.256h-2.35v1.256h2.61a0.323,0.323,0,0,1-.02-0.094C1189.79,973.964,1189.71,973.578,1189.64,973.21Zm1.16,4.814a4.677,4.677,0,0,0,.7-3.558c-0.04-.258-0.1-0.523-0.17-0.8-0.04-.155-0.07-0.306-0.11-0.457a6,6,0,0,1,.45-4.567,2.5,2.5,0,0,1,1.81-1.13,5.133,5.133,0,0,1,2.19.179l0.28-1.328a5.6,5.6,0,0,0-4.45.276c-2.03,1.13-2.55,2.848-1.86,6.57,0.07,0.368.15,0.754,0.24,1.162a0.323,0.323,0,0,0,.02.094,4.958,4.958,0,0,1-2.63,5.718v0.734h9.46v-1.58h-6.99Z" transform="translate(-1187.28 -966.031)"/>
</svg>
