<svg xmlns="http://www.w3.org/2000/svg" width="13" height="15" viewBox="0 0 13 15">
  <defs>
    <style>
      .cls-1 {
        fill: #212121;
        fill-rule: evenodd;
      }
    </style>
  </defs>
  <path id="GEL" class="cls-1" d="M1197.35,1038.59a6.5,6.5,0,0,0-3.81-3.14,0.1,0.1,0,0,1-.09-0.12c0.01-.74.01-1.48,0.01-2.22V1033c-0.37.36-.72,0.7-1.06,1.05a0.128,0.128,0,0,0-.04.1v1.05a6.84,6.84,0,0,0-1.63-.01v-2.17a0.147,0.147,0,0,0-.04.02c-0.34.33-.68,0.67-1.02,1a0.245,0.245,0,0,0-.04.12v1.24a6.5,6.5,0,0,0-4.56,5.23,6.414,6.414,0,0,0,2.81,6.3h-0.1c-0.53,0-1.06,0-1.59-.01a0.219,0.219,0,0,0-.17.07c-0.3.3-.61,0.6-0.91,0.9a1.047,1.047,0,0,1-.11.08,0.053,0.053,0,0,1,.02.03h10.82a0.211,0.211,0,0,0,.13-0.05c0.33-.32.65-0.64,0.98-0.96,0.01-.02.03-0.03,0.05-0.06h-0.13c-1.8,0-3.59,0-5.39-.01-0.13,0-.26,0-0.4-0.01a5.383,5.383,0,0,1-3.51-1.68,5.113,5.113,0,0,1-1.4-4.51,5.22,5.22,0,0,1,2.82-3.87c0.2-.11.42-0.2,0.64-0.3v5.01a0.138,0.138,0,0,1,.04.03,0.726,0.726,0,0,1,.05-0.09c0.32-.31.63-0.62,0.95-0.93a0.211,0.211,0,0,0,.06-0.16v-4.12a4.954,4.954,0,0,1,1.63,0v5.29c0.04-.04.07-0.06,0.09-0.08,0.31-.31.62-0.61,0.93-0.91a0.273,0.273,0,0,0,.08-0.19v-3.84a5.441,5.441,0,0,1,1.89,1.18,5.289,5.289,0,0,1,1.65,3.83,0.653,0.653,0,0,0,.08-0.07c0.29-.28.57-0.57,0.86-0.85a0.147,0.147,0,0,0,.06-0.17A6.229,6.229,0,0,0,1197.35,1038.59Z" transform="translate(-1185 -1033)"/>
</svg>
