<?xml version="1.0" encoding="utf-8"?>
<!-- Generator: Adobe Illustrator 21.1.0, SVG Export Plug-In . SVG Version: 6.00 Build 0)  -->
<svg version="1.1" id="Layer_1" xmlns="http://www.w3.org/2000/svg" xmlns:xlink="http://www.w3.org/1999/xlink" x="0px" y="0px" width="12.7" height="15.4"
	 viewBox="0 0 12.7 15.4" style="enable-background:new 0 0 12.7 15.4;" xml:space="preserve">
<style type="text/css">
	.st0{fill:#212121;}
</style>
<path class="st0" d="M3.1,14.8c-0.5,0-0.9,0-1.3,0c0-1,0-1.9,0-2.9c-0.6,0-1.2,0-1.8,0c0-0.4,0-0.7,0-1.1c0.6,0,1.2,0,1.8,0
	c0-0.7,0-1.3,0-1.9c-0.6,0-1.2,0-1.8,0c0-0.4,0-0.7,0-1.1c0.6,0,1.2,0,1.8,0c0-2.3,0-4.5,0-6.8c0.2,0,0.3,0,0.5,0c1.7,0,3.3,0,5,0
	c0.5,0,1,0.1,1.5,0.2c1.8,0.5,2.8,2.2,2.6,4.2c-0.2,2.2-1.6,3.4-3.7,3.5c-1.3,0.1-2.6,0-3.9,0c-0.2,0-0.3,0-0.5,0c0,0.7,0,1.3,0,1.9
	c1.6,0,3.1,0,4.7,0c0,0.4,0,0.7,0,1.1c-1.6,0-3.1,0-4.7,0C3.1,12.9,3.1,13.9,3.1,14.8z M3.1,7.7c1.6,0,3.2,0.1,4.7,0
	C9.3,7.5,10,6.4,10,4.9c0-1.5-0.8-2.5-2.3-2.7C7.2,2.1,6.6,2.1,6.1,2.1c-1,0-2,0-3,0C3.1,4,3.1,5.8,3.1,7.7z"/>
</svg>
