<svg xmlns="http://www.w3.org/2000/svg" width="8" height="17" viewBox="0 0 8 17">
  <defs>
    <style>
      .cls-1 {
        fill: #212121;
        fill-rule: evenodd;
      }
    </style>
  </defs>
  <path id="USD" class="cls-1" d="M1192.72,871.571c-1.84-.773-2.64-1.314-2.64-2.395,0-.85.64-1.778,2.24-1.778a5.756,5.756,0,0,1,2.72.7l0.56-1.391a5.24,5.24,0,0,0-2.8-.7V864h-1.36v2.087a3.391,3.391,0,0,0-3.2,3.322c0,1.778,1.36,2.782,3.52,3.632,1.6,0.619,2.4,1.314,2.4,2.473s-1.04,2.009-2.56,2.009a5.686,5.686,0,0,1-3.12-.927l-0.48,1.391a5.84,5.84,0,0,0,3.28.927V881h1.36v-2.164a3.661,3.661,0,0,0,3.36-3.555C1196.08,873.5,1194.96,872.421,1192.72,871.571Z" transform="translate(-1188 -864)"/>
</svg>
